<?xml version="1.0" encoding="UTF-8" standalone="no"?>
<svg width="518px" height="390px" viewBox="0 0 518 390" version="1.1" xmlns="http://www.w3.org/2000/svg" xmlns:xlink="http://www.w3.org/1999/xlink" xmlns:sketch="http://www.bohemiancoding.com/sketch/ns">
    <!-- Generator: Sketch 3.3.2 (12043) - http://www.bohemiancoding.com/sketch -->
    <title>architect</title>
    <desc>Created with Sketch.</desc>
    <defs></defs>
    <g id="Page-1" stroke="none" stroke-width="1" fill="none" fill-rule="evenodd" sketch:type="MSPage">
        <g id="Desktop-HD-Copy" sketch:type="MSArtboardGroup" transform="translate(-123.000000, -2065.000000)">
            <g id="architect" sketch:type="MSLayerGroup" transform="translate(123.000000, 2065.000000)">
                <g id="browser-header-copy-3" transform="translate(0.687500, 0.731250)" sketch:type="MSShapeGroup">
                    <rect id="Rectangle-29" fill="#D8D8D8" x="0" y="0" width="516.910903" height="26.5375" rx="1"></rect>
                    <ellipse id="Oval-7" fill="#7F45FF" cx="15.5073271" cy="12.0625" rx="5.16910903" ry="4.825"></ellipse>
                    <ellipse id="Oval-7-Copy" fill="#7F45FF" cx="31.0146542" cy="12.0625" rx="5.16910903" ry="4.825"></ellipse>
                    <ellipse id="Oval-7-Copy-2" fill="#7F45FF" cx="46.5219813" cy="12.0625" rx="5.16910903" ry="4.825"></ellipse>
                </g>
                <g id="Group-Copy-7" transform="translate(1.000000, 27.268750)" fill="#45FFDD" sketch:type="MSShapeGroup">
                    <rect id="Rectangle-21" x="0" y="0" width="516.910903" height="361.875"></rect>
                </g>
                <path d="M444.9,146.972667 L444.9,115 L385.540093,115 L385.540093,128.695227 L364.99404,128.695227 L364.99404,156.09532 L349.014133,156.09532 L349.014133,142.403307 L289.644587,142.403307 L289.644587,174.37276 L349.00128,174.37276 L349.00128,160.66468 L364.981187,160.66468 L364.981187,210.89872 L349.00128,210.89872 L349.00128,197.19064 L289.644587,197.19064 L289.644587,210.89872 L259.969453,210.89872 L259.969453,170.066893 L228,170.066893 L228,256.287053 L259.969453,256.287053 L259.969453,215.46808 L289.644587,215.46808 L289.644587,229.163307 L349.00128,229.163307 L349.00128,215.46808 L364.981187,215.46808 L364.981187,265.70212 L349.00128,265.70212 L349.00128,251.99404 L289.644587,251.99404 L289.644587,283.963493 L349.00128,283.963493 L349.00128,270.27148 L364.981187,270.27148 L364.981187,297.671573 L385.52724,297.671573 L385.52724,311.379653 L444.9,311.379653 L444.9,279.394133 L385.540093,279.394133 L385.540093,293.102213 L369.5634,293.102213 L369.5634,242.868173 L385.540093,242.868173 L385.540093,256.5634 L444.9,256.5634 L444.9,224.593947 L385.540093,224.593947 L385.540093,238.298813 L369.5634,238.298813 L369.5634,188.067987 L385.540093,188.067987 L385.540093,201.772853 L444.9,201.772853 L444.9,169.8034 L385.540093,169.8034 L385.540093,183.498627 L369.5634,183.498627 L369.5634,133.264587 L385.540093,133.264587 L385.540093,146.972667 L444.9,146.972667 Z" id="Imported-Layers" fill="#FFFFFF" sketch:type="MSShapeGroup"></path>
                <g id="Group" transform="translate(57.000000, 89.000000)" fill="#FFFFFF" sketch:type="MSShapeGroup">
                    <path d="M42.57,68.0514583 L58.05,74.31475 L58.05,70.304125 L49.10385,66.5867083 L58.05,62.7530417 L58.05,58.772125 L42.57,65.0354167 L42.57,68.0514583 Z" id="Shape"></path>
                    <path d="M59.20068,75.837625 L62.50308,76.91875 L71.53695,54.2345 L68.23455,53.0926667 L59.20068,75.837625 Z" id="Shape"></path>
                    <path d="M73.53,62.7530417 L82.47486,66.5867083 L73.53,70.304125 L73.53,74.31475 L89.01,68.0514583 L89.01,65.0354167 L73.53,58.772125 L73.53,62.7530417 Z" id="Shape"></path>
                    <path d="M25.49814,25.8333333 L22.28217,25.8333333 L21.43464,31 L19.15392,31 L20.00016,25.8333333 L16.75452,25.8333333 L15.90699,31 L12.9,31 L12.9,33.5833333 L15.52902,33.5833333 L15.09042,37.4583333 L12.9,37.4583333 L12.9,40.0416667 L14.6802,40.0416667 L13.83396,45.2083333 L17.04993,45.2083333 L17.89746,40.0416667 L20.20656,40.0416667 L19.35903,45.2083333 L22.575,45.2083333 L23.4522,40.0416667 L25.8,40.0416667 L25.8,37.4583333 L23.83275,37.4583333 L24.24168,33.5833333 L27.09,33.5833333 L27.09,31 L24.67899,31 L25.49814,25.8333333 L25.49814,25.8333333 Z M20.61549,37.4583333 L18.33477,37.4583333 L18.71532,33.5833333 L21.02571,33.5833333 L20.61549,37.4583333 L20.61549,37.4583333 Z" id="Shape"></path>
                    <path d="M124.12767,0 L4.87233,0 C2.18139,0 0,2.18420833 0,4.878625 L0,88.1200833 C0,90.8157917 2.18139,93 4.87233,93 L124.12638,93 C126.81732,93 128.99871,90.8157917 128.99871,88.121375 L128.99871,4.878625 C129,2.18420833 126.81861,0 124.12767,0 L124.12767,0 Z M29.73192,5.86933333 C31.49664,5.86933333 32.92983,7.30308333 32.92983,9.071375 C32.92983,10.8396667 31.49664,12.2734167 29.73192,12.2734167 C27.9672,12.2734167 26.53401,10.8409583 26.53401,9.071375 C26.53401,7.30308333 27.9672,5.86933333 29.73192,5.86933333 L29.73192,5.86933333 Z M19.98726,5.86933333 C21.75327,5.86933333 23.18517,7.30308333 23.18517,9.071375 C23.18517,10.8396667 21.75327,12.2734167 19.98726,12.2734167 C18.22254,12.2734167 16.78935,10.8409583 16.78935,9.071375 C16.78935,7.30308333 18.22254,5.86933333 19.98726,5.86933333 L19.98726,5.86933333 Z M10.2426,5.86933333 C12.00732,5.86933333 13.44051,7.30308333 13.44051,9.071375 C13.44051,10.8396667 12.00861,12.2734167 10.2426,12.2734167 C8.47659,12.2734167 7.04469,10.8409583 7.04469,9.071375 C7.04469,7.30308333 8.47788,5.86933333 10.2426,5.86933333 L10.2426,5.86933333 Z M121.26,78.867875 C121.26,81.6785417 118.98315,83.9583333 116.17482,83.9583333 L10.24518,83.9583333 C7.43685,83.9583333 5.16,81.6785417 5.16,78.867875 L5.16,23.1737917 C5.16,20.363125 7.43685,18.0833333 10.24518,18.0833333 L116.17353,18.0833333 C118.98315,18.0833333 121.26,20.363125 121.26,23.1737917 L121.26,78.867875 L121.26,78.867875 Z" id="Shape"></path>
                    <path d="M97.22343,28.1738333 C96.59391,28.857125 96.75,29.802625 96.75,30.9638333 L96.75,35.343875 C96.75,35.7029583 96.22884,36.0013333 96.12564,36.2402917 C96.02244,36.4805417 95.51547,36.6626667 95.35293,36.7918333 C95.19168,36.9197083 94.99818,37.0088333 94.79307,37.0605 C94.58796,37.110875 94.17,37.1354167 94.17,37.1354167 L94.17,39.9538333 C94.17,39.9538333 94.61118,39.9796667 94.81371,40.0313333 C95.01882,40.083 95.29359,40.176 95.45742,40.3129167 C95.61867,40.4498333 96.05469,40.6422917 96.1566,40.8902917 C96.25722,41.137 96.75,41.4573333 96.75,41.85 L96.75,46.1267083 C96.75,47.2879167 96.59391,47.7929583 97.22343,48.4749583 C97.85553,49.15825 98.23479,49.0833333 99.30936,49.0833333 L103.2,49.0833333 L103.2,46.5 L101.42367,46.5 C100.9296,46.5 100.79544,46.7015 100.65096,46.3785833 C100.50519,46.0530833 100.62,46.066 100.62,45.6927083 L100.62,41.51675 C100.62,40.9522917 100.3104,40.4885833 100.14141,40.1204583 C99.97242,39.7523333 99.68991,39.459125 99.44352,39.2356667 C99.19713,39.0147917 99.0204,38.8520417 98.74692,38.75 C98.47344,38.6479583 98.04,38.5885417 98.04,38.5704583 L98.04,38.5200833 C98.04,38.502 98.37024,38.4348333 98.63985,38.3147083 C98.91591,38.1945833 99.17391,38.0240833 99.4203,37.8019167 C99.66798,37.5810417 100.06659,37.2942917 100.23558,36.9429583 C100.40586,36.5942083 100.62,36.1718333 100.62,35.677125 L100.62,31.399125 C100.62,31.0245417 100.50519,30.597 100.65096,30.2727917 C100.79544,29.9485833 100.9296,29.7083333 101.42367,29.7083333 L103.2,29.7083333 L103.2,27.125 L99.30936,27.125 C98.23479,27.125 97.85553,27.4905417 97.22343,28.1738333 L97.22343,28.1738333 Z" id="Shape"></path>
                    <path d="M114.91707,36.7918333 C114.75453,36.6626667 114.24756,36.4805417 114.14436,36.2402917 C114.04116,36.0013333 113.52,35.7029583 113.52,35.343875 L113.52,30.9638333 C113.52,29.802625 113.67609,28.857125 113.04657,28.1725417 C112.41447,27.4905417 112.03521,27.125 110.96064,27.125 L107.07,27.125 L107.07,29.7083333 L108.84633,29.7083333 C109.3404,29.7083333 109.47456,29.9485833 109.61904,30.2727917 C109.76481,30.597 109.65,31.0245417 109.65,31.399125 L109.65,35.677125 C109.65,36.173125 109.86414,36.5942083 110.03442,36.94425 C110.20341,37.2942917 110.60073,37.5810417 110.8497,37.8032083 C111.09609,38.025375 111.35538,38.195875 111.63015,38.316 C111.89976,38.4348333 112.23,38.5032917 112.23,38.5200833 L112.23,38.5704583 C112.23,38.5885417 111.79656,38.6479583 111.52308,38.75 C111.2496,38.8533333 111.07287,39.0147917 110.82648,39.2369583 C110.58009,39.459125 110.29758,39.753625 110.12859,40.12175 C109.9596,40.489875 109.65,40.9522917 109.65,41.5180417 L109.65,45.6927083 C109.65,46.066 109.76481,46.0530833 109.61904,46.3785833 C109.47456,46.7015 109.3404,46.5 108.84633,46.5 L107.07,46.5 L107.07,49.0833333 L110.96064,49.0833333 C112.03521,49.0833333 112.41447,49.15825 113.04657,48.4749583 C113.67609,47.7929583 113.52,47.2879167 113.52,46.1267083 L113.52,41.85 C113.52,41.4560417 114.01278,41.1357083 114.1134,40.889 C114.21531,40.6422917 114.65133,40.4498333 114.81258,40.3129167 C114.97641,40.176 115.25118,40.0817083 115.45629,40.0313333 C115.65882,39.9796667 116.1,39.9538333 116.1,39.9538333 L116.1,37.1354167 C116.1,37.1354167 115.68204,37.110875 115.47693,37.0592083 C115.27182,37.0088333 115.07832,36.9197083 114.91707,36.7918333 L114.91707,36.7918333 Z" id="Shape"></path>
                </g>
                <g id="Group" transform="translate(51.500000, 215.377907)" fill="#FFFFFF" sketch:type="MSShapeGroup">
                    <rect id="Rectangle-path" x="13.0724651" y="18.4776105" width="15.8379186" height="2.85198837"></rect>
                    <rect id="Rectangle-path" x="13.0724651" y="23.1706105" width="60.1805349" height="2.85198837"></rect>
                    <rect id="Rectangle-path" x="13.0724651" y="32.9170581" width="110.855733" height="9.96616279"></rect>
                    <rect id="Rectangle-path" x="13.0724651" y="50.0577093" width="83.4048488" height="2.85629651"></rect>
                    <rect id="Rectangle-path" x="13.0724651" y="54.4376512" width="108.043407" height="2.85486047"></rect>
                    <rect id="Rectangle-path" x="13.0724651" y="68.5827093" width="30.9711395" height="22.8259593"></rect>
                    <rect id="Rectangle-path" x="13.0724651" y="95.0878198" width="25.338407" height="2.85198837"></rect>
                    <rect id="Rectangle-path" x="13.0724651" y="101.649116" width="18.7698488" height="2.85486047"></rect>
                    <rect id="Rectangle-path" x="53.0155698" y="68.5827093" width="30.9711395" height="22.8259593"></rect>
                    <rect id="Rectangle-path" x="53.0155698" y="95.0878198" width="25.338407" height="2.85198837"></rect>
                    <rect id="Rectangle-path" x="53.0155698" y="101.649116" width="18.7698488" height="2.85486047"></rect>
                    <rect id="Rectangle-path" x="13.0724651" y="115.099128" width="70.5037093" height="2.85055233"></rect>
                    <path d="M1.45788372,0 L1.45788372,129.244186 L134.724942,129.244186 L137.5405,129.244186 L137.5405,126.744029 L137.5405,0 L1.45788372,0 L1.45788372,0 Z M4.27344186,126.744029 L4.27344186,10.8421512 L134.724942,10.8421512 L134.724942,126.744029 L4.27344186,126.744029 L4.27344186,126.744029 Z" id="Shape"></path>
                    <rect id="Rectangle-path" x="92.9635233" y="68.5827093" width="30.9662907" height="22.8259593"></rect>
                    <rect id="Rectangle-path" x="92.9635233" y="95.0878198" width="25.338407" height="2.85198837"></rect>
                    <rect id="Rectangle-path" x="92.9635233" y="101.649116" width="18.7666163" height="2.85486047"></rect>
                </g>
            </g>
        </g>
    </g>
</svg>