<?xml version="1.0" encoding="UTF-8" standalone="no"?>
<svg width="518px" height="389px" viewBox="0 0 518 389" version="1.1" xmlns="http://www.w3.org/2000/svg" xmlns:xlink="http://www.w3.org/1999/xlink" xmlns:sketch="http://www.bohemiancoding.com/sketch/ns">
    <!-- Generator: Sketch 3.3.2 (12043) - http://www.bohemiancoding.com/sketch -->
    <title>cross-functional teams</title>
    <desc>Created with Sketch.</desc>
    <defs></defs>
    <g id="Page-1" stroke="none" stroke-width="1" fill="none" fill-rule="evenodd" sketch:type="MSPage">
        <g id="Desktop-HD" sketch:type="MSArtboardGroup" transform="translate(-117.000000, -705.000000)">
            <g id="cross-functional-teams" sketch:type="MSLayerGroup" transform="translate(117.000000, 704.000000)">
                <g id="browser-header-copy-2" transform="translate(0.687500, 1.000000)" sketch:type="MSShapeGroup">
                    <rect id="Rectangle-29" fill="#D8D8D8" x="0" y="0" width="516.910903" height="26.5375" rx="1"></rect>
                    <ellipse id="Oval-7" fill="#7F45FF" cx="15.5073271" cy="12.0625" rx="5.16910903" ry="4.825"></ellipse>
                    <ellipse id="Oval-7-Copy" fill="#7F45FF" cx="31.0146542" cy="12.0625" rx="5.16910903" ry="4.825"></ellipse>
                    <ellipse id="Oval-7-Copy-2" fill="#7F45FF" cx="46.5219813" cy="12.0625" rx="5.16910903" ry="4.825"></ellipse>
                </g>
                <g id="Group-Copy-5" transform="translate(1.000000, 27.537500)" fill="#45FFDD" sketch:type="MSShapeGroup">
                    <rect id="Rectangle-21" x="0" y="1.13686838e-13" width="516.910903" height="361.875"></rect>
                </g>
                <g id="egghead" transform="translate(41.000000, 125.000000)" sketch:type="MSShapeGroup">
                    <path d="M26.5636507,94.2259838 L0.0151699029,79.2592593 L3.34774657,68.8758681 L41.9417476,65.162037 L77.0676578,69.8958333 L80,79.2592593 L53.4515192,94.2259838 L40.007585,94.1732597 L26.5636507,94.2259838 Z" id="Path-17" stroke="#000000" stroke-width="5" fill="#F5CCAB"></path>
                    <path d="M18.6680825,54.8712384 C18.6680825,54.8712384 5.98604369,61.598669 5.98604369,67.578125 C15.7175364,73.7282986 22.1237864,77.3567708 22.1237864,77.3567708 L58.3131068,77.3567708 L73.4594964,67.3119213 C73.4594964,67.3119213 65.9253641,55.2560764 56.9227852,54.224537 C47.9202063,53.1929977 18.6680825,54.8712384 18.6680825,54.8712384 Z" id="Path-16" stroke="#000000" stroke-width="5" fill="#7F45FF"></path>
                    <g id="face" transform="translate(3.106796, 0.000000)">
                        <ellipse id="Oval-1" stroke="#000000" stroke-width="5" fill="#F5CCAB" cx="33.7864078" cy="30.3703704" rx="25.2427184" ry="30.3703704"></ellipse>
                        <ellipse id="Oval-2" stroke="#000000" stroke-width="5" cx="33.7864078" cy="52.962963" rx="10.4854369" ry="10"></ellipse>
                        <path d="M27.961165,49.6296296 C27.961165,52.0842285 30.395345,54.0740741 33.3980583,54.0740741 C36.4007715,54.0740741 38.8349515,52.0842285 38.8349515,49.6296296" id="Oval-3" fill="#000000"></path>
                        <path d="M28.431432,36.3686343 L37.8003641,35.853588" id="Path-2" stroke="#000000" stroke-width="5"></path>
                        <path d="M17.5652513,21.644257 L30.0317751,20.7504952" id="Path-3" stroke="#000000" stroke-width="5"></path>
                        <path d="M37.7594261,21.644257 L50.2259499,20.7504952" id="Path-4" stroke="#000000" stroke-width="5" transform="translate(43.973018, 21.232137) scale(-1, 1) translate(-43.973018, -21.232137) "></path>
                        <ellipse id="Oval-3" fill="#000000" cx="24.0776699" cy="30.3703704" rx="2.33009709" ry="2.22222222"></ellipse>
                        <ellipse id="Oval-4" fill="#000000" cx="43.4951456" cy="30.3703704" rx="2.33009709" ry="2.22222222"></ellipse>
                        <path d="M6.60194175,22.2222222 C2.95579,22.2222222 0,25.372811 0,29.2592593 C0,33.1457075 2.95579,36.2962963 6.60194175,36.2962963" id="Oval-5" stroke="#000000" stroke-width="5" fill="#F5CCAB"></path>
                        <path d="M67.961165,22.2222222 C64.3150133,22.2222222 61.3592233,25.372811 61.3592233,29.2592593 C61.3592233,33.1457075 64.3150133,36.2962963 67.961165,36.2962963" id="Oval-6" stroke="#000000" stroke-width="5" fill="#F5CCAB" transform="translate(64.660194, 29.259259) scale(-1, 1) translate(-64.660194, -29.259259) "></path>
                    </g>
                    <g id="laptop" transform="translate(11.650485, 68.148148)">
                        <path d="M-0.0738268454,0 L2.71136733,32.2048611 L51.8406149,32.2048611 L53.6104389,0 L-0.0738268454,0 Z" id="Rectangle-1" stroke="#FFFFFF" fill="#B0ACB0"></path>
                        <ellipse id="Oval-5" fill="#D8D8D8" cx="26.0194175" cy="15.1851852" rx="5.04854369" ry="4.81481481"></ellipse>
                    </g>
                </g>
                <g id="Group" transform="translate(260.000000, 125.000000)" sketch:type="MSShapeGroup">
                    <ellipse id="Oval-128" fill="#F5CCAB" cx="45.84375" cy="36.1581921" rx="25.03125" ry="33.3333333"></ellipse>
                    <rect id="Rectangle-152" fill="#FDFDF5" x="25.875" y="68.3615819" width="37.6875" height="31.6384181" rx="1"></rect>
                    <path d="M35.8890857,33.9006704 C37.4410907,33.9006704 38.7037157,32.6366102 38.7037157,31.0736723 C38.7037157,29.5148475 37.4410907,28.2507872 35.8890857,28.2507872 C34.3370807,28.2507872 33.0785507,29.5148475 33.0785507,31.0736723 C33.0785507,32.6366102 34.3370807,33.9006704 35.8890857,33.9006704 L35.8890857,33.9006704 Z M56.1402257,33.9006704 C57.6922307,33.9006704 58.9493957,32.6366102 58.9493957,31.0736723 C58.9493957,29.5148475 57.6922307,28.2507872 56.1402257,28.2507872 C54.5882207,28.2507872 53.3242307,29.5148475 53.3242307,31.0736723 C53.3242307,32.6366102 54.5882207,33.9006704 56.1402257,33.9006704 L56.1402257,33.9006704 Z M64.0149107,28.2507872 L64.0640507,27.0730998 L49.9499507,24.8232919 L49.7411057,26.8318041 L64.0149107,28.2507872 Z M28.4716757,28.2507872 L28.4184407,27.0730998 L42.5380007,24.8232919 L42.7400207,26.8318041 L28.4716757,28.2507872 Z M34.7643257,49.6246478 C34.7643257,49.6246478 38.2887557,52.2802712 46.2221357,51.3973484 C54.1514207,50.5075706 61.2002807,45.2004369 61.2002807,45.2004369 C61.2002807,45.2004369 60.6406307,57.0636836 48.8251907,57.0636836 C43.2041207,57.0636836 34.7643257,49.6246478 34.7643257,49.6246478 L34.7643257,49.6246478 Z M27.4533857,58.1933861 C27.4533857,58.1933861 31.9537907,67.8013409 43.7637707,69.4931525 C55.5751157,71.1904482 61.2002807,63.8432693 61.2002807,63.8432693 C61.2002807,63.8432693 54.4503557,69.4931525 43.7637707,67.8013409 C33.0785507,66.1026742 27.4533857,58.1933861 27.4533857,58.1933861 L27.4533857,58.1933861 Z M42.6390107,35.5924821 C42.6390107,35.5924821 40.3894907,38.9829605 42.0793607,42.3734388 C43.7637707,45.7625461 46.5797657,45.7625461 46.5797657,45.7625461 C46.5797657,45.7625461 43.5194357,44.0871864 42.6390107,41.8113296 C41.7599507,39.5341017 42.6390107,35.5924821 42.6390107,35.5924821 L42.6390107,35.5924821 Z" id="Imported-Layers" fill="#623711"></path>
                    <path d="M36.7258307,99.8878192 L0.0469157333,99.8878192 C-0.848524267,64.4077589 11.1853157,73.2232768 26.6002607,68.3658305 L36.7258307,99.8878192 Z" id="Path" fill="#22085B"></path>
                    <path d="M52.8765107,99.8878192 L89.5499657,99.8878192 C90.4522307,64.4077589 78.4115657,73.2232768 63.0020807,68.3658305 L52.8765107,99.8878192 Z" id="Path" fill="#22085B"></path>
                    <path d="M45.4837907,68.9802923 C31.4229257,64.8210214 44.5514957,82.0527101 44.5514957,82.0527101 L40.3923407,99.405989 L51.0775607,99.405989 L47.4780557,82.0527101 C47.4780557,82.0527101 61.0106657,64.8210214 46.9443407,68.9802923 L45.4837907,68.9802923 Z" id="Path" fill="#B2114A"></path>
                    <path d="M18.4539407,27.683194 C18.4539407,20.3401281 24.0791057,14.6902448 24.0791057,14.6902448 C24.0791057,14.6902448 21.2631107,6.78095669 29.1391607,3.95807156 C37.0138457,1.13107345 63.4498007,0 63.4498007,0 C63.4498007,0 58.9493957,2.82836911 61.2002807,4.52018079 C63.4498007,6.21884746 66.8254457,6.78095669 66.8254457,6.78095669 L65.7006857,7.91065913 L66.2657957,10.7390282 C66.2657957,10.7390282 69.6414407,12.9984331 70.7662007,17.5186139 C71.8909607,22.0387947 71.3258507,37.2911488 71.3258507,37.2911488 C71.3258507,37.2911488 70.7662007,28.2507872 68.5153157,25.4224181 C66.2657957,22.600904 62.3250407,11.8687307 62.3250407,11.8687307 C62.3250407,11.8687307 53.8893407,12.9984331 48.2641757,12.9984331 C42.6390107,12.9984331 27.4533857,15.257838 27.4533857,15.257838 C27.4533857,15.257838 24.0791057,23.1630132 24.0791057,26.5534915 C24.0791057,29.9425989 22.3878707,40.1126629 22.3878707,40.1126629 C22.3878707,40.1126629 18.4539407,35.0303729 18.4539407,27.683194 Z" id="Path" fill="#4A4A4A"></path>
                </g>
                <g id="Teacher-6" transform="translate(391.000000, 125.000000)" sketch:type="MSShapeGroup">
                    <path d="M54.2244263,19.249808 C54.2244263,7.75157353 46.554712,0 38.250365,0 C29.946018,0 24.291867,7.75157353 24.291867,19.249808" id="Oval-8" fill="#4C4C4C"></path>
                    <path d="M47.146254,104.684138 L47.146254,104.728018 L17.547561,104.684138 L17.1920552,77.6683539 L12.8971328,102.519732 L0.257097685,102.519734 C0.257097685,102.519734 5.70921732,64.4666012 9.96858919,58.8918022 C14.2279611,53.3170031 21.7724128,54.4997218 21.7724128,54.4997218 L38.8227809,54.4997218 L53.8591312,54.4997218 C53.8591312,54.4997218 63.4176007,53.3170031 67.6769725,58.8918022 C71.9363444,64.4666012 77.4672936,102.519734 77.4672936,102.519734 L64.7484289,102.519732 L60.4535065,77.6683539 L60.0980007,104.684138 L47.146254,104.684138 Z" id="Path-31" fill="#B2104A"></path>
                    <path d="M32.7106569,48.9457349 L44.8452555,48.9457349 L44.8452555,54.1887828 L59.090219,54.1887828 L59.090219,68.3450121 C59.090219,68.3450121 44.8452561,64.4290822 37.2741786,68.3450114 C31.1882125,64.4290822 21.6312409,68.3450121 21.6312409,68.3450121 L21.6312409,54.188783 L32.7106569,54.1887828 L32.7106569,48.9457349 Z" id="Rectangle-3" fill="#E6AE87"></path>
                    <path d="M38.3800509,5.17171066 C28.5058516,5.39255138 22.1196983,12.790775 20.4392748,15.6310735 C13.6859177,30.5527387 23.1539868,42.7776373 28.4614064,46.0578731 M52.4062505,43.5768736 C57.6157083,40.2968941 64.1300473,31.3730512 57.4453918,15.6338807 C55.6603597,10.5798181 49.5277039,5.3961585 39.8357578,5.17533503 C39.7831597,5.17171066 39.7301447,5.17201518 39.6771815,5.17262093 C39.6242182,5.17201518 39.5712032,5.17171066 39.5181374,5.17171066" id="hair" fill="#4C4C4C"></path>
                    <g id="face" transform="translate(24.227445, 18.197142)">
                        <path d="M1.80165206,0.556010288 C1.80165206,0.556010288 10.2991468,0.556010202 15.0781022,0.556010202 C19.9716529,0.556010202 28.4946123,0.556010288 28.4946123,0.556010288 C28.4946123,0.556010288 30.6068533,11.2599899 29.4620512,20.5246502 C29.0161628,24.1331383 28.4796661,25.9651282 26.0688403,28.2207681 C23.9746679,30.1801377 21.0520753,32.8458122 15.0781022,32.8458122 C9.16197199,32.8458122 5.54062466,30.1464112 3.43862299,28.2207681 C0.974573392,25.963453 1.3610131,24.0972298 0.598422371,20.5246502 C-1.12901915,12.4319445 1.80165206,0.556010288 1.80165206,0.556010288 Z" id="Rectangle-3" fill="#E6AE87"></path>
                        <ellipse id="Oval-9" fill="#F5B88D" cx="5.05386861" cy="16.3302113" rx="0.26379562" ry="0.262152395"></ellipse>
                        <ellipse id="Oval-10" fill="#F5B88D" cx="6.10905109" cy="16.3302113" rx="0.26379562" ry="0.262152395"></ellipse>
                        <ellipse id="Oval-11" fill="#F5B88D" cx="24.0471533" cy="16.3302113" rx="0.26379562" ry="0.262152395"></ellipse>
                        <ellipse id="Oval-12" fill="#F5B88D" cx="22.9919708" cy="16.3302113" rx="0.26379562" ry="0.262152395"></ellipse>
                        <path d="M2.15211679,9.04372574 C2.15211679,9.04372574 5.20740591,6.63008052 10.0077649,7.49129208" id="Path-21" stroke="#4A4A4A" stroke-width="2"></path>
                        <ellipse id="Oval-5" fill="#4A4A4A" cx="6.10905109" cy="11.0871634" rx="1.3189781" ry="1.31076197"></ellipse>
                        <ellipse id="Oval-6" fill="#4A4A4A" cx="22.9919708" cy="11.0871634" rx="1.3189781" ry="1.31076197"></ellipse>
                        <path d="M26.8906846,9.04372574 C26.8906846,9.04372574 23.8353955,6.63008052 19.0350365,7.49129208" id="Path-22" stroke="#4A4A4A" stroke-width="2"></path>
                        <path d="M4.08421362,15.4905044 C4.08421362,15.4905044 5.20148081,13.9662316 7.38062842,15.5580906" id="Path-23" stroke="#F5B98D"></path>
                        <path d="M22.0223158,15.4905044 C22.0223158,15.4905044 23.139583,13.9662316 25.3187306,15.5580906" id="Path-24" stroke="#F5B98D"></path>
                        <path d="M13.8518647,28.7445609 L16.0964828,28.7445609" id="Path-27" stroke="#F5B88D"></path>
                        <path d="M12.7152766,19.4596555 C12.7152766,19.4596555 14.7264606,21.7296802 16.7376446,19.567947" id="Path-25" stroke="#A87855"></path>
                        <path d="M9.37769997,24.0248331 L9.23054673,24.0247937 L9.37769997,24.0248331 C9.63741255,24.3571346 13.6568008,29.2657377 20.5697897,24.0278288 L20.7079731,24.0278658 L20.5697897,24.0278288 C20.578761,24.0210314 20.5877371,24.0142168 20.5967182,24.0073852 L9.36428003,24.0073852 C9.36428003,24.0073852 9.3687651,24.013401 9.37769997,24.0248331 L9.37769997,24.0248331 Z" id="Path-30" stroke="#DA9C70" fill="#FBFBFB"></path>
                    </g>
                    <path d="M33.2586299,54.4402692 C30.8508726,54.9472431 26.6301315,56.7793515 26.6301315,56.7793515 C26.6301315,56.7793515 36.9080648,76.8818003 50.4798426,91.1304753 C60.639058,91.1304753 66.9502036,89.4424839 66.9502036,89.4424839 L42.1558782,53.5102726 C42.1558782,53.5102726 36.0261216,53.8575501 33.2586299,54.4402692 Z" id="Path-219" fill="#22085B" transform="translate(46.790168, 72.320374) scale(-1, 1) translate(-46.790168, -72.320374) "></path>
                    <path d="M17.040816,54.6577785 C14.9696864,55.0587835 11.3390454,56.5079399 11.3390454,56.5079399 C11.3390454,56.5079399 20.5046904,81.651744 27.409087,91.186205 C42.3871464,101.35652 47.1381586,84.8193094 45.0381501,88.4594461 L24.6941435,53.9221722 C24.6941435,53.9221722 19.4213857,54.1968609 17.040816,54.6577785 Z" id="Path-218" fill="#3A148E"></path>
                    <path d="M26.0165873,9.72170612 C26.0165873,9.72170612 39.0820099,2.87945289 52.7284515,9.7217062" id="Path-220" stroke="#B2114A"></path>
                    <ellipse id="Oval-93" fill="#AE1225" cx="39" cy="23.111413" rx="0.854014599" ry="0.855978261"></ellipse>
                </g>
                <text id="tech" sketch:type="MSTextLayer" font-family="Open Sans" font-size="30" font-weight="normal" fill="#4A4A4A">
                    <tspan x="48" y="273">tech</tspan>
                </text>
                <text id="ux" sketch:type="MSTextLayer" font-family="Open Sans" font-size="30" font-weight="normal" fill="#4A4A4A">
                    <tspan x="168" y="273">ux</tspan>
                </text>
                <text id="biz" sketch:type="MSTextLayer" font-family="Open Sans" font-size="30" font-weight="normal" fill="#4A4A4A">
                    <tspan x="288" y="273">biz</tspan>
                </text>
                <text id="ops" sketch:type="MSTextLayer" font-family="Open Sans" font-size="30" font-weight="normal" fill="#4A4A4A">
                    <tspan x="408" y="273">ops</tspan>
                </text>
                <g id="Imported-Layers" transform="translate(162.500000, 138.000000)" sketch:type="MSShapeGroup">
                    <path d="M28,76 C42.9116882,76 55,58.9868205 55,38 C55,17.0131795 63.2714844,0 28,0 C-7.27148437,0 1,17.0131795 1,38 C1,58.9868205 13.0883118,76 28,76 Z" id="Oval-36" fill="#F5CCAB"></path>
                    <circle id="Oval-37" fill="#000000" cx="19" cy="29" r="2"></circle>
                    <circle id="Oval-37-Copy" fill="#000000" cx="41" cy="29" r="2"></circle>
                    <path d="M5.926,26.477 L7.652,26.477 C7.578,26.852 7.578,27.152 7.578,27.527 C7.578,32.777 11.852,37.129 17.18,37.129 C22.43,37.129 26.781,32.855 26.781,27.527 L26.781,27.152 C27.383,26.852 28.805,26.402 30.383,27.152 L30.383,27.527 C30.383,32.777 34.656,37.129 39.984,37.129 C45.234,37.129 49.586,32.855 49.586,27.527 C49.586,27.152 49.586,26.777 49.512,26.477 L51.238,26.477 C51.762,26.477 52.137,26.102 52.137,25.578 C52.137,25.055 51.762,24.68 51.238,24.68 L49.137,24.68 C47.699,20.773 44.102,18 39.824,18 C35.625,18 32.098,20.699 30.75,24.449 C28.949,23.773 27.227,24.074 26.176,24.449 C24.898,20.699 21.375,18 17.176,18 C12.902,18 9.301,20.773 8.102,24.676 L6,24.676 C5.477,24.676 5.102,25.051 5.102,25.574 C5.023,26.102 5.477,26.477 5.926,26.477 L5.926,26.477 Z M39.824,20.699 C43.574,20.699 46.648,23.773 46.648,27.523 C46.648,31.273 43.574,34.348 39.824,34.348 C36.074,34.348 33,31.273 33,27.523 C33,23.773 36.074,20.699 39.824,20.699 L39.824,20.699 Z M17.176,20.699 C20.926,20.699 24,23.773 24,27.523 C24,31.273 20.926,34.348 17.176,34.348 C13.426,34.348 10.352,31.273 10.352,27.523 C10.352,23.773 13.426,20.699 17.176,20.699 L17.176,20.699 Z" id="Fill-1" fill="#000000"></path>
                    <path d="M47.176,47.176 C47.926,46.875 48.75,44.852 48.75,44.852 C46.125,45 44.625,42.828 44.625,42.828 C42.301,41.18 40.051,40.727 38.176,40.805 C36.902,40.129 34.727,39.305 32.324,39.98 C29.023,40.957 28.5,43.504 28.426,44.105 C28.352,43.504 27.902,40.957 24.527,39.98 C22.129,39.305 19.953,40.129 18.676,40.805 C16.727,40.73 14.551,41.18 12.227,42.828 C12.227,42.828 10.652,45.004 8.102,44.852 C8.102,44.852 8.852,46.875 9.676,47.176 C9.676,47.176 5.324,48.449 5.102,54.375 C4.875,60.301 7.203,67.352 11.328,68.551 C11.328,68.551 10.805,76.949 20.027,82.727 L20.176,81.602 C20.176,81.602 20.102,84.152 24.375,86.777 C27,88.426 27.898,90.301 28.273,91.578 L28.422,92.402 L28.422,92.852 L28.422,92.328 L28.422,92.328 L28.422,92.93 C28.422,92.328 28.723,89.254 32.547,86.855 C36.82,84.23 36.746,81.68 36.746,81.68 L36.895,82.805 C46.121,77.031 45.594,68.629 45.594,68.629 C49.719,67.355 52.043,60.379 51.82,54.453 C51.449,48.449 47.176,47.176 47.176,47.176 L47.176,47.176 Z M28.273,51.375 C24.375,51.375 21.523,50.398 21.523,50.398 C23.172,50.324 24.898,49.348 24.898,49.348 L24.672,49.797 C26.922,50.098 28.273,48.445 28.273,48.445 C28.273,48.445 29.547,50.094 31.875,49.797 L31.648,49.348 C31.648,49.348 33.375,50.324 35.023,50.398 C35.023,50.398 32.176,51.375 28.273,51.375 L28.273,51.375 Z" id="Fill-2" fill="#000000"></path>
                </g>
                <path d="M219.142857,152.14892 C219.142857,138.728401 206.60683,127.848921 191.142857,127.848921 C175.678884,127.848921 163.142857,138.728401 163.142857,152.14892" id="Oval-15" fill="#7F45FF" sketch:type="MSShapeGroup"></path>
            </g>
        </g>
    </g>
</svg>