<?xml version="1.0" encoding="UTF-8" standalone="no"?>
<svg width="30px" height="30px" viewBox="0 0 30 30" version="1.1" xmlns="http://www.w3.org/2000/svg" xmlns:xlink="http://www.w3.org/1999/xlink" xmlns:sketch="http://www.bohemiancoding.com/sketch/ns">
    <!-- Generator: Sketch 3.3.2 (12043) - http://www.bohemiancoding.com/sketch -->
    <title>github</title>
    <desc>Created with Sketch.</desc>
    <defs></defs>
    <g id="Page-1" stroke="none" stroke-width="1" fill="none" fill-rule="evenodd" sketch:type="MSPage">
        <g id="Desktop-HD" sketch:type="MSArtboardGroup" transform="translate(-773.000000, -395.000000)">
            <g id="github" sketch:type="MSLayerGroup" transform="translate(773.000000, 395.000000)">
                <path d="M0.168435516,14.7540984 C0.168435516,6.60563444 6.78361567,0 14.9438548,0 C23.104094,0 29.7192741,6.60563444 29.7192741,14.7540984 C29.7192741,22.9025623 23.104094,29.5081967 14.9438548,29.5081967 C6.78361567,29.5081967 0.168435516,22.9025623 0.168435516,14.7540984 Z" id="Github" fill="#7F45FF" sketch:type="MSShapeGroup"></path>
                <path d="M9.10921224,15.7060114 C9.8034253,16.9430116 11.1422648,17.7126278 13.4003644,17.9255003 C13.0780512,18.1655083 12.6908939,18.6211959 12.6374929,19.1479971 C12.2322174,19.4053155 11.4173753,19.4899967 10.7837152,19.2939668 C9.89592346,19.01887 9.55596886,17.2939004 8.22666529,17.5395226 C7.9386813,17.5928577 7.99589667,17.7790627 8.24478349,17.9371966 C8.65005897,18.1945151 9.03149471,18.5163971 9.32567703,19.2018 C9.5516777,19.7281333 10.0265652,20.6685154 11.5284684,20.6685154 C12.1244618,20.6685154 12.5421339,20.5983376 12.5421339,20.5983376 C12.5421339,20.5983376 12.553577,21.9415401 12.553577,22.4636627 C12.553577,23.065788 11.7253846,23.2356182 11.7253846,23.5252184 C11.7253846,23.6398421 11.9995416,23.6506027 12.2198207,23.6506027 C12.6551343,23.6506027 13.5610442,23.2940996 13.5610442,22.6681139 C13.5610442,22.1707875 13.5691497,20.4986852 13.5691497,20.2062778 C13.5691497,19.5667244 13.9186402,19.3641446 13.9186402,19.3641446 C13.9186402,19.3641446 13.9620285,22.7780591 13.8352011,23.2356182 C13.6864412,23.7736477 13.4180058,23.6973879 13.4180058,23.9373959 C13.4180058,24.2943668 14.5084352,24.0248841 14.8698456,23.2412324 C15.1492472,22.6311537 15.0271878,19.2822705 15.0271878,19.2822705 L15.3251845,19.2761885 C15.3251845,19.2761885 15.3418723,20.8093388 15.3318596,21.5101808 C15.3213701,22.2358189 15.2713067,23.1537441 15.7104346,23.586507 C15.9988954,23.8709609 16.9343665,24.3701588 16.9343665,23.9140033 C16.9343665,23.6487313 16.4218122,23.4307124 16.4218122,22.7130277 L16.4218122,19.4109298 C16.8309021,19.4109298 16.7693956,20.4968138 16.7693956,20.4968138 L16.7994336,22.5141907 C16.7994336,22.5141907 16.7093194,23.2491859 17.6095078,23.5570324 C17.927053,23.6660418 18.6069623,23.6955165 18.6389075,23.5125864 C18.6708527,23.3291885 17.820251,23.0564309 17.8126223,22.4870553 C17.8078544,22.1399093 17.8283565,21.9373294 17.8283565,20.4285074 C17.8283565,18.9196854 17.6219045,18.362006 16.9024213,17.9175468 C19.1228541,17.6934458 20.4969764,17.1544338 21.1668729,15.7106899 C21.219181,15.7123754 21.4395745,15.0362824 21.4109918,15.0365155 C21.5611821,14.4914682 21.6422372,13.8467684 21.6584482,13.0832343 C21.6546338,11.0129901 20.6447827,10.280802 20.4507273,9.93693097 C20.7368041,8.36962747 20.4030478,7.65615349 20.2480895,7.411467 C19.6759359,7.21169428 18.2574718,7.92516827 17.4826804,8.42810894 C16.2191745,8.0655238 13.5491243,8.10061269 12.5478555,8.5216793 C10.7002761,7.22339058 9.72284699,7.42222759 9.72284699,7.42222759 C9.72284699,7.42222759 9.09109404,8.5333756 9.55596886,10.1591606 C8.94805564,10.9194197 8.49510069,11.4574493 8.49510069,12.8834616 C8.49510069,13.6867631 8.59141322,14.4058513 8.80883159,15.0337084 C8.78217884,15.0336439 9.10042466,15.7062186 9.10921224,15.7060114 Z" id="Path" fill="#FFFFFF" sketch:type="MSShapeGroup"></path>
                <path d="M29.7192741,14.7540984 C29.7192741,22.9025623 23.104094,29.5081967 14.9438548,29.5081967 C11.9174154,29.5081967 9.1034977,28.5995967 6.76080739,27.0407092 L23.6909181,2.86200543 C27.3468671,5.54786082 29.7192741,9.87432653 29.7192741,14.7540984 Z" id="reflec" fill-opacity="0.08" fill="#000000" sketch:type="MSShapeGroup"></path>
            </g>
        </g>
    </g>
</svg>