<?xml version="1.0" encoding="UTF-8" standalone="no"?>
<svg width="98px" height="85px" viewBox="0 0 98 85" version="1.1" xmlns="http://www.w3.org/2000/svg" xmlns:xlink="http://www.w3.org/1999/xlink" xmlns:sketch="http://www.bohemiancoding.com/sketch/ns">
    <!-- Generator: Sketch 3.3.2 (12043) - http://www.bohemiancoding.com/sketch -->
    <title>gyaan</title>
    <desc>Created with Sketch.</desc>
    <defs></defs>
    <g id="Page-1" stroke="none" stroke-width="1" fill="none" fill-rule="evenodd" sketch:type="MSPage">
        <g id="Desktop-HD" sketch:type="MSArtboardGroup" transform="translate(-117.000000, -1773.000000)" fill="#FFFFFF">
            <g id="gyaan" sketch:type="MSLayerGroup" transform="translate(117.000000, 1773.000000)">
                <circle id="Oval" sketch:type="MSShapeGroup" cx="48.926" cy="50.893" r="10.125"></circle>
                <path d="M49,71.988 C29.128,71.988 13.459,55.199 12.802,54.485 L10.852,52.365 L12.64,50.106 C12.804,49.898 16.737,44.964 23.083,40.004 C31.664,33.296 40.626,29.751 49,29.751 C57.374,29.751 66.336,33.297 74.918,40.004 C81.264,44.964 85.196,49.898 85.361,50.106 L87.149,52.365 L85.199,54.485 C84.541,55.2 68.872,71.988 49,71.988 L49,71.988 Z M19.944,52.019 C24.56,56.219 35.99,65.238 49,65.238 C62.059,65.238 73.457,56.225 78.061,52.024 C73.565,47.226 62.054,36.501 49,36.501 C35.951,36.501 24.444,47.218 19.944,52.019 L19.944,52.019 Z" id="Shape" sketch:type="MSShapeGroup"></path>
                <path d="M43.305,23.939 L49,14.075 L54.695,23.939 C57.697,24.366 60.74,25.124 63.797,26.204 L49,0.575 L34.203,26.204 C37.26,25.124 40.303,24.366 43.305,23.939 L43.305,23.939 Z" id="Shape" sketch:type="MSShapeGroup"></path>
                <path d="M80.252,67.857 L86.309,78 L11.691,78 L17.748,67.857 C15.719,66.578 13.854,65.228 12.17,63.97 L0,85 L98,85 L85.83,63.97 C84.146,65.228 82.28,66.578 80.252,67.857 L80.252,67.857 Z" id="Shape" sketch:type="MSShapeGroup"></path>
            </g>
        </g>
    </g>
</svg>