<?xml version="1.0" encoding="UTF-8" standalone="no"?>
<svg width="71px" height="39px" viewBox="0 0 71 39" version="1.1" xmlns="http://www.w3.org/2000/svg" xmlns:xlink="http://www.w3.org/1999/xlink" xmlns:sketch="http://www.bohemiancoding.com/sketch/ns">
    <!-- Generator: Sketch 3.3.2 (12043) - http://www.bohemiancoding.com/sketch -->
    <title>Imported Layers</title>
    <desc>Created with Sketch.</desc>
    <defs></defs>
    <g id="Page-1" stroke="none" stroke-width="1" fill="none" fill-rule="evenodd" sketch:type="MSPage">
        <g id="Desktop-HD" sketch:type="MSArtboardGroup" transform="translate(-542.000000, -139.000000)" fill="#44FCDA">
            <g id="Group" sketch:type="MSLayerGroup" transform="translate(502.000000, 125.000000)">
                <path d="M91.383,14.461 C80.668,14.86 76.59,24.297 72.992,32.626 C68.977,41.922 66.047,47.563 58.801,47.293 C50.887,47.012 44.688,40.731 44.688,32.989 C44.688,26.09 48.375,18.711 58.727,18.688 C61.586,18.692 64.016,20.223 65.77,21.809 L63.106,24.211 L63.121,24.43 L73.094,26.168 L72.391,16.071 L72.176,16.032 L69.274,18.649 C66.852,16.36 63.274,14 58.746,14 C47.524,14.028 40,21.657 40,32.989 C40,43.27 48.188,51.61 58.637,51.977 C69.559,52.376 73.676,42.868 77.297,34.485 C80.641,26.747 83.797,19.438 91.555,19.149 C95.063,19.02 98.41,20.333 101.024,22.852 C103.867,25.594 105.5,29.458 105.5,33.454 C105.5,41.25 99.422,47.399 91.364,47.758 C88.219,47.883 85.836,46.602 84.164,45.176 L86.774,42.903 L86.766,42.684 L81.219,41.618 C81.211,41.602 76.821,40.778 76.821,40.778 L77.352,50.887 L77.567,50.93 L80.602,48.282 C82.883,50.403 86.278,52.461 90.875,52.461 C91.106,52.461 91.336,52.454 91.571,52.442 C102.008,51.981 110.184,43.641 110.184,33.458 C110.188,28.188 108.032,23.094 104.278,19.477 C100.735,16.067 96.172,14.297 91.383,14.461 Z" id="Imported-Layers" sketch:type="MSShapeGroup"></path>
            </g>
        </g>
    </g>
</svg>