<?xml version="1.0" encoding="UTF-8" standalone="no"?>
<svg width="30px" height="30px" viewBox="0 0 30 30" version="1.1" xmlns="http://www.w3.org/2000/svg" xmlns:xlink="http://www.w3.org/1999/xlink" xmlns:sketch="http://www.bohemiancoding.com/sketch/ns">
    <!-- Generator: Sketch 3.3.2 (12043) - http://www.bohemiancoding.com/sketch -->
    <title>linkedin</title>
    <desc>Created with Sketch.</desc>
    <defs></defs>
    <g id="Page-1" stroke="none" stroke-width="1" fill="none" fill-rule="evenodd" sketch:type="MSPage">
        <g id="Desktop-HD" sketch:type="MSArtboardGroup" transform="translate(-663.000000, -395.000000)">
            <g id="linkedin" sketch:type="MSLayerGroup" transform="translate(663.000000, 395.000000)">
                <path d="M0.224580688,14.7540984 C0.224580688,6.60563444 6.83976084,0 15,0 C23.1602392,0 29.7754193,6.60563444 29.7754193,14.7540984 C29.7754193,22.9025623 23.1602392,29.5081967 15,29.5081967 C6.83976084,29.5081967 0.224580688,22.9025623 0.224580688,14.7540984 Z" id="LinkedIN" fill="#753FEB" sketch:type="MSShapeGroup"></path>
                <path d="M11.2340196,11.6605645 L7.89041828,11.6605645 L7.89041828,21.7066985 L11.2340196,21.7066985 L11.2340196,11.6605645 Z" id="Path" fill="#FFFFFF" sketch:type="MSShapeGroup"></path>
                <path d="M11.4542376,8.5528899 C11.4325363,7.56787282 10.7281458,6.81762492 9.58432088,6.81762492 C8.44049592,6.81762492 7.69270283,7.56787282 7.69270283,8.5528899 C7.69270283,9.51750387 8.41839399,10.2893551 9.5409183,10.2893551 L9.56228572,10.2893551 C10.7281458,10.2893551 11.4542376,9.51750387 11.4542376,8.5528899 Z" id="Path" fill="#FFFFFF" sketch:type="MSShapeGroup"></path>
                <path d="M23.2923251,15.9465523 C23.2923251,12.8608144 21.6428267,11.4246618 19.4425829,11.4246618 C17.6673506,11.4246618 16.8725491,12.399744 16.4287744,13.0837818 L16.4287744,11.6608312 L13.0847725,11.6608312 C13.1288428,12.6035084 13.0847725,21.7069652 13.0847725,21.7069652 L16.4287744,21.7069652 L16.4287744,16.0963752 C16.4287744,15.7961293 16.4504757,15.4966169 16.5388834,15.2816507 C16.7805357,14.6818258 17.3307468,14.0607976 18.2544873,14.0607976 C19.4648852,14.0607976 19.9487238,14.982005 19.9487238,16.3320111 L19.9487238,21.7066985 L23.2921916,21.7066985 L23.2923251,15.9465523 Z" id="Path" fill="#FFFFFF" sketch:type="MSShapeGroup"></path>
                <path d="M29.7754193,14.7540984 C29.7754193,22.9025623 23.1602392,29.5081967 15,29.5081967 C11.9735606,29.5081967 9.15964288,28.5995967 6.81695256,27.0407092 L23.7470632,2.86200543 C27.4030122,5.54786082 29.7754193,9.87432653 29.7754193,14.7540984 Z" id="reflec" fill-opacity="0.08" fill="#000000" sketch:type="MSShapeGroup"></path>
            </g>
        </g>
    </g>
</svg>