<?xml version="1.0" encoding="UTF-8" standalone="no"?>
<svg width="518px" height="390px" viewBox="0 0 518 390" version="1.1" xmlns="http://www.w3.org/2000/svg" xmlns:xlink="http://www.w3.org/1999/xlink" xmlns:sketch="http://www.bohemiancoding.com/sketch/ns">
    <!-- Generator: Sketch 3.3.2 (12043) - http://www.bohemiancoding.com/sketch -->
    <title>Group</title>
    <desc>Created with Sketch.</desc>
    <defs></defs>
    <g id="Page-1" stroke="none" stroke-width="1" fill="none" fill-rule="evenodd" sketch:type="MSPage">
        <g id="Desktop-HD-Copy" sketch:type="MSArtboardGroup" transform="translate(-720.000000, -2066.000000)">
            <g id="Group" sketch:type="MSLayerGroup" transform="translate(720.000000, 2066.000000)">
                <g id="browser-header-copy-4" transform="translate(0.687500, 0.731250)" sketch:type="MSShapeGroup">
                    <rect id="Rectangle-29" fill="#D8D8D8" x="0" y="0" width="516.910903" height="26.5375" rx="1"></rect>
                    <ellipse id="Oval-7" fill="#7F45FF" cx="15.5073271" cy="12.0625" rx="5.16910903" ry="4.825"></ellipse>
                    <ellipse id="Oval-7-Copy" fill="#7F45FF" cx="31.0146542" cy="12.0625" rx="5.16910903" ry="4.825"></ellipse>
                    <ellipse id="Oval-7-Copy-2" fill="#7F45FF" cx="46.5219813" cy="12.0625" rx="5.16910903" ry="4.825"></ellipse>
                </g>
                <g id="Group-Copy-8" transform="translate(1.000000, 27.268750)" fill="#45FFDD" sketch:type="MSShapeGroup">
                    <rect id="Rectangle-21" x="0" y="2.27373675e-13" width="516.910903" height="361.875"></rect>
                </g>
                <polygon id="Triangle-4" fill="#FFFFFF" sketch:type="MSShapeGroup" transform="translate(260.000000, 168.000000) scale(-1, -1) rotate(-90.000000) translate(-260.000000, -168.000000) " points="260 113 315 223 205 223 "></polygon>
                <path d="M381.82132,276.94044 C359.96272,277.7544 351.6436,297.00588 344.30368,313.99704 C336.11308,332.96088 330.13588,344.46852 315.35404,343.91772 C299.20948,343.34448 286.56352,330.53124 286.56352,314.73756 C286.56352,300.6636 294.085,285.61044 315.20308,285.56352 C321.03544,285.57168 325.99264,288.69492 329.5708,291.93036 L324.13624,296.83044 L324.16684,297.2772 L344.51176,300.82272 L343.07764,280.22484 L342.63904,280.14528 L336.71896,285.48396 C331.77808,280.8144 324.47896,276 315.24184,276 C292.34896,276.05712 277,291.62028 277,314.73756 C277,335.7108 293.70352,352.7244 315.01948,353.47308 C337.30036,354.28704 345.69904,334.89072 353.08588,317.7894 C359.90764,302.00388 366.34588,287.09352 382.1722,286.50396 C389.32852,286.2408 396.1564,288.91932 401.48896,294.05808 C407.28868,299.65176 410.62,307.53432 410.62,315.68616 C410.62,331.59 398.22088,344.13396 381.78256,344.86632 C375.36676,345.12132 370.50544,342.50808 367.09456,339.59904 L372.41896,334.96212 L372.40264,334.51536 L361.08676,332.34072 C361.07044,332.30808 352.11484,330.62712 352.11484,330.62712 L353.19808,351.24948 L353.63668,351.3372 L359.82808,345.93528 C364.48132,350.26212 371.40712,354.46044 380.785,354.46044 C381.25624,354.46044 381.72544,354.44616 382.20484,354.42168 C403.49632,353.48124 420.17536,336.46764 420.17536,315.69432 C420.18352,304.94352 415.78528,294.55176 408.12712,287.17308 C400.8994,280.21668 391.59088,276.60588 381.82132,276.94044 Z" id="Imported-Layers-Copy" fill="#FFFFFF" sketch:type="MSShapeGroup"></path>
                <path d="M121,262.5 C90.6239583,262.5 66,287.123958 66,317.5 C66,347.876042 90.6239583,372.5 121,372.5 C151.376042,372.5 176,347.876042 176,317.5 C176,287.123958 151.376042,262.5 121,262.5 L121,262.5 Z M115.034792,331.701458 L104.800208,341.940625 L111.544583,348.682708 C113.591042,350.729167 112.896667,352.402083 110.004583,352.402083 L92.6245833,352.3975 C89.7279167,352.3975 87.360625,350.030208 87.3629167,347.138125 L87.3629167,329.758125 C87.3629167,326.861458 89.0335417,326.17625 91.08,328.218125 L97.8220833,334.960208 L108.06125,324.716458 C110.107708,322.67 113.352708,322.566875 115.270833,324.482708 C117.19125,326.412292 117.083542,329.657292 115.034792,331.701458 L115.034792,331.701458 Z M115.273125,312.346042 C113.355,314.266458 110.11,314.161042 108.063542,312.114583 L97.824375,301.873125 L91.0822917,308.6175 C89.0358333,310.663958 87.3629167,309.971875 87.3629167,307.0775 L87.3652083,289.6975 C87.3652083,286.800833 89.7325,284.435833 92.626875,284.435833 L110.006875,284.433542 C112.898958,284.433542 113.58875,286.104167 111.546875,288.148333 L104.8025,294.892708 L115.039375,305.129583 C117.085833,307.182917 117.19125,310.427917 115.273125,312.346042 L115.273125,312.346042 Z M153.486667,347.140417 C153.486667,350.039375 151.123958,352.404375 148.222708,352.404375 L130.845,352.404375 C127.950625,352.404375 127.263125,350.73375 129.305,348.689583 L136.0425,341.9475 L125.805625,331.710625 C123.759167,329.661875 123.656042,326.416875 125.571875,324.501042 C127.487708,322.580625 130.735,322.68375 132.781458,324.734792 L143.018333,334.973958 L149.760417,328.231875 C151.809167,326.183125 153.475208,326.875208 153.4775,329.771875 L153.4775,347.142708 L153.486667,347.142708 L153.486667,347.140417 Z M149.776458,308.619792 L143.032083,301.88 L132.795208,312.116875 C130.744167,314.165625 127.499167,314.266458 125.585625,312.352917 C123.6675,310.4325 123.772917,307.1875 125.819375,305.143333 L136.05625,294.906458 L129.31875,288.162083 C127.27,286.115625 127.964375,284.442708 130.85875,284.442708 L148.236458,284.445 C151.137708,284.445 153.505,286.81 153.505,289.706667 L153.505,307.084375 C153.486667,309.976458 151.811458,310.670833 149.776458,308.619792 L149.776458,308.619792 Z" id="Shape" fill="#FFFFFF" sketch:type="MSShapeGroup"></path>
            </g>
        </g>
    </g>
</svg>