<?xml version="1.0" encoding="UTF-8" standalone="no"?>
<svg width="30px" height="30px" viewBox="0 0 30 30" version="1.1" xmlns="http://www.w3.org/2000/svg" xmlns:xlink="http://www.w3.org/1999/xlink" xmlns:sketch="http://www.bohemiancoding.com/sketch/ns">
    <!-- Generator: Sketch 3.3.2 (12043) - http://www.bohemiancoding.com/sketch -->
    <title>mail</title>
    <desc>Created with Sketch.</desc>
    <defs></defs>
    <g id="Page-1" stroke="none" stroke-width="1" fill="none" fill-rule="evenodd" sketch:type="MSPage">
        <g id="Desktop-HD" sketch:type="MSArtboardGroup" transform="translate(-720.000000, -395.000000)">
            <g id="mail" sketch:type="MSLayerGroup" transform="translate(720.000000, 395.000000)">
                <path d="M0.112290344,14.7540984 C0.112290344,6.60563444 6.72747049,0 14.8877097,0 C23.0479488,0 29.663129,6.60563444 29.663129,14.7540984 C29.663129,22.9025623 23.0479488,29.5081967 14.8877097,29.5081967 C6.72747049,29.5081967 0.112290344,22.9025623 0.112290344,14.7540984 Z" id="Mail" fill="#7F45FF" sketch:type="MSShapeGroup"></path>
                <path d="M17.5192162,15.5598692 L23.6065574,19.9556195 L23.6065574,9.83606557 L17.5192162,15.5598692 Z M6.8852459,9.83606557 L6.8852459,19.9556195 L12.9724565,15.5592537 L6.8852459,9.83606557 Z M15.2459016,17.6972897 L13.7925519,16.3310762 L6.8852459,20.6557377 L23.6065574,20.6557377 L16.6990881,16.3310762 L15.2459016,17.6972897 Z M23.104918,9.83606557 L7.38688525,9.83606557 L15.2459016,15.9614412 L23.104918,9.83606557 Z" id="Shape" fill="#F6F7ED" sketch:type="MSShapeGroup"></path>
                <path d="M29.663129,14.7540984 C29.663129,22.9025623 23.0479488,29.5081967 14.8877097,29.5081967 C11.8612702,29.5081967 9.04735253,28.5995967 6.70466221,27.0407092 L23.6347729,2.86200543 C27.2907219,5.54786082 29.663129,9.87432653 29.663129,14.7540984 Z" id="reflec" fill-opacity="0.08" fill="#000000" sketch:type="MSShapeGroup"></path>
            </g>
        </g>
    </g>
</svg>