<?xml version="1.0" encoding="UTF-8" standalone="no"?>
<svg width="30px" height="30px" viewBox="0 0 30 30" version="1.1" xmlns="http://www.w3.org/2000/svg" xmlns:xlink="http://www.w3.org/1999/xlink" xmlns:sketch="http://www.bohemiancoding.com/sketch/ns">
    <!-- Generator: Sketch 3.3.2 (12043) - http://www.bohemiancoding.com/sketch -->
    <title>twitter</title>
    <desc>Created with Sketch.</desc>
    <defs></defs>
    <g id="Page-1" stroke="none" stroke-width="1" fill="none" fill-rule="evenodd" sketch:type="MSPage">
        <g id="Desktop-HD" sketch:type="MSArtboardGroup" transform="translate(-593.000000, -395.000000)">
            <g id="twitter" sketch:type="MSLayerGroup" transform="translate(593.000000, 395.245902)">
                <path d="M0,14.7540984 C0,6.60563444 6.61518015,0 14.7754193,0 C22.9356585,0 29.5508386,6.60563444 29.5508386,14.7540984 C29.5508386,22.9025623 22.9356585,29.5081967 14.7754193,29.5081967 C6.61518015,29.5081967 0,22.9025623 0,14.7540984 Z" id="Twitter" fill="#753FEB" sketch:type="MSShapeGroup"></path>
                <path d="M14.4097217,11.7481857 L14.4406823,12.2587108 L13.9246729,12.1961975 C12.0463989,11.9565633 10.4054892,11.1438907 9.01226399,9.77901751 L8.33113166,9.10179035 L8.15568848,9.60189656 C7.78416176,10.7167166 8.02152606,11.89405 8.79554007,12.6858848 C9.20834754,13.1234778 9.11546586,13.1859911 8.40337297,12.9255191 C8.15568848,12.842168 7.93896456,12.7796548 7.91832419,12.8109114 C7.84608288,12.8838436 8.09376736,13.8319616 8.28985091,14.2070412 C8.55817577,14.7279852 9.10514567,15.2385103 9.70371651,15.5406578 L10.2094057,15.780292 L9.61083483,15.7907109 C9.03290436,15.7907109 9.01226399,15.8011298 9.07418511,16.0199262 C9.28058885,16.6971534 10.0958836,17.4160561 11.00406,17.7286225 L11.6439116,17.9474189 L11.0866215,18.2808231 C10.2610066,18.7600915 9.29090903,19.0309824 8.32081147,19.0518201 C7.85640307,19.062239 7.47455615,19.1039145 7.47455615,19.1351712 C7.47455615,19.23936 8.73361895,19.8228172 9.46635221,20.0520326 C11.664552,20.7292597 14.2755593,20.4375311 16.2363948,19.2810355 C17.62962,18.457944 19.0228452,16.82218 19.673017,15.2385103 C20.0239033,14.3945811 20.3747897,12.8525869 20.3747897,12.1128465 C20.3747897,11.633578 20.4057502,11.5710648 20.9836807,10.9980264 C21.3242469,10.6646223 21.6441727,10.2999615 21.7060938,10.1957727 C21.8092957,9.99781397 21.7989755,9.99781397 21.2726459,10.1749349 C20.3954301,10.4875013 20.2715878,10.4458258 20.7050357,9.97697621 C21.0249615,9.64357207 21.4068084,9.03927707 21.4068084,8.86215612 C21.4068084,8.83089948 21.2520056,8.88299388 21.0765624,8.97676379 C20.890799,9.08095259 20.4779916,9.23723578 20.1683859,9.33100569 L19.6110959,9.50812664 L19.1054067,9.16430362 C18.8267617,8.97676379 18.4345946,8.76838621 18.2281908,8.70587293 C17.7018613,8.56000862 16.8968867,8.58084638 16.4221581,8.74754845 C15.1321348,9.21639802 14.31684,10.424988 14.4097217,11.7481857 Z" id="Path" fill="#FFFFFF" sketch:type="MSShapeGroup"></path>
                <path d="M29.5508386,14.7540984 C29.5508386,22.9025623 22.9356585,29.5081967 14.7754193,29.5081967 C11.7489799,29.5081967 8.93506219,28.5995967 6.59237187,27.0407092 L23.5224825,2.86200543 C27.1784315,5.54786082 29.5508386,9.87432653 29.5508386,14.7540984 Z" id="reflec" fill-opacity="0.08" fill="#000000" sketch:type="MSShapeGroup"></path>
            </g>
        </g>
    </g>
</svg>